# xmcd
#
# Track frame offsets:
#	150
#	21205
#	32948
#	62560
#	76002
#	93351
#	114822
#	130786
#	152289
#	175226
#	194704
#	208585
#	225077
#	243749
#
# Disc length: 3525 seconds
#
# Revision: 1
# Processed by: cddbd v1.5.2PL0 Copyright (c) Steve Scherf et al.
# Submitted via: EZCDAudioConverter 3.1.0.1
#
DISCID=a60dc30e
DTITLE=Nanci Griffith - Winter Marquee
DYEAR=2002
DGENRE=Country
TTITLE0=Speed Of The Sound Of Loneliness
TTITLE1=I Wish It Would Rain
TTITLE2=Boots Of Spanish Leather
TTITLE3=Two For The Road
TTITLE4=Listen To The Radio
TTITLE5=There's A Light Beyond These Woods (Mary Margaret)
TTITLE6=Gulf Coast Highway
TTITLE7=The Flyer
TTITLE8=Good Night, New York
TTITLE9=Traveling Through This Part Of You
TTITLE10=Last Train Home
TTITLE11=I'm Not Driving These Wheels (Bring The Prose To The Wheel)
TTITLE12=What's That I Hear
TTITLE13=White Freight Liner
EXTD=
EXTT0=
EXTT1=
EXTT2=
EXTT3=
EXTT4=
EXTT5=
EXTT6=
EXTT7=
EXTT8=
EXTT9=
EXTT10=
EXTT11=
EXTT12=
EXTT13=
PLAYORDER=
